<svg width="104" height="12" viewBox="0 0 104 12" fill="none" xmlns="http://www.w3.org/2000/svg">
<path d="M6.55664 5.75195C6.55664 6.34961 6.38672 6.80664 6.04688 7.12305C5.71094 7.43555 5.23438 7.5918 4.61719 7.5918C4.00391 7.5918 3.51172 7.38672 3.14062 6.97656C2.77344 6.5625 2.58984 6 2.58984 5.28906V4.64453C2.58984 3.95703 2.77539 3.4082 3.14648 2.99805C3.52148 2.58398 4.01172 2.37695 4.61719 2.37695C5.24219 2.37695 5.72266 2.53711 6.05859 2.85742C6.39453 3.17773 6.5625 3.62891 6.5625 4.21094H5.70703C5.70703 3.82422 5.61328 3.54883 5.42578 3.38477C5.24219 3.2168 4.97266 3.13281 4.61719 3.13281C4.25 3.13281 3.96094 3.26758 3.75 3.53711C3.53906 3.80664 3.43359 4.18164 3.43359 4.66211V5.32422C3.43359 5.79297 3.53906 6.16211 3.75 6.43164C3.96094 6.70117 4.25 6.83594 4.61719 6.83594C4.97656 6.83594 5.24609 6.75391 5.42578 6.58984C5.60938 6.42578 5.70117 6.14648 5.70117 5.75195H6.55664ZM1.20703 4.97852C1.20703 5.65039 1.36328 6.27344 1.67578 6.84766C1.98828 7.41797 2.41211 7.86523 2.94727 8.18945C3.48633 8.51367 4.06836 8.67578 4.69336 8.67578C5.31836 8.67578 5.89844 8.51367 6.43359 8.18945C6.96875 7.86523 7.39258 7.41797 7.70508 6.84766C8.01758 6.27344 8.17383 5.65039 8.17383 4.97852C8.17383 4.31445 8.01953 3.69922 7.71094 3.13281C7.40234 2.56641 6.97852 2.12109 6.43945 1.79688C5.9043 1.46875 5.32227 1.30469 4.69336 1.30469C4.06836 1.30469 3.48633 1.4668 2.94727 1.79102C2.4082 2.11133 1.98242 2.55664 1.66992 3.12695C1.36133 3.69727 1.20703 4.31445 1.20703 4.97852ZM0.533203 4.97852C0.533203 4.18945 0.714844 3.45703 1.07812 2.78125C1.44531 2.10547 1.95117 1.57422 2.5957 1.1875C3.24414 0.796875 3.94336 0.601562 4.69336 0.601562C5.44336 0.601562 6.14062 0.796875 6.78516 1.1875C7.42969 1.57422 7.93359 2.10547 8.29688 2.78125C8.66406 3.45703 8.84766 4.18945 8.84766 4.97852C8.84766 5.74805 8.67188 6.46875 8.32031 7.14062C7.96875 7.8125 7.46875 8.35352 6.82031 8.76367C6.17578 9.16992 5.4668 9.37305 4.69336 9.37305C3.92383 9.37305 3.21484 9.17188 2.56641 8.76953C1.92188 8.36328 1.42188 7.82422 1.06641 7.15234C0.710938 6.48047 0.533203 5.75586 0.533203 4.97852ZM13.7254 5.91016V9.25H12.6004V0.71875H15.7469C16.6805 0.71875 17.4109 0.957031 17.9383 1.43359C18.4695 1.91016 18.7352 2.54102 18.7352 3.32617C18.7352 4.1543 18.4754 4.79297 17.9559 5.24219C17.4402 5.6875 16.7 5.91016 15.7352 5.91016H13.7254ZM13.7254 4.99023H15.7469C16.3484 4.99023 16.8094 4.84961 17.1297 4.56836C17.45 4.2832 17.6102 3.87305 17.6102 3.33789C17.6102 2.83008 17.45 2.42383 17.1297 2.11914C16.8094 1.81445 16.3699 1.65625 15.8113 1.64453H13.7254V4.99023ZM22.1496 9.36719C21.2902 9.36719 20.591 9.08594 20.052 8.52344C19.5129 7.95703 19.2434 7.20117 19.2434 6.25586V6.05664C19.2434 5.42773 19.3625 4.86719 19.6008 4.375C19.843 3.87891 20.1789 3.49219 20.6086 3.21484C21.0422 2.93359 21.5109 2.79297 22.0148 2.79297C22.8391 2.79297 23.4797 3.06445 23.9367 3.60742C24.3937 4.15039 24.6223 4.92773 24.6223 5.93945V6.39062H20.3273C20.343 7.01562 20.5246 7.52148 20.8723 7.9082C21.2238 8.29102 21.6691 8.48242 22.2082 8.48242C22.591 8.48242 22.9152 8.4043 23.1809 8.24805C23.4465 8.0918 23.6789 7.88477 23.8781 7.62695L24.5402 8.14258C24.009 8.95898 23.2121 9.36719 22.1496 9.36719ZM22.0148 3.68359C21.5773 3.68359 21.2102 3.84375 20.9133 4.16406C20.6164 4.48047 20.4328 4.92578 20.3625 5.5H23.5383V5.41797C23.507 4.86719 23.3586 4.44141 23.093 4.14062C22.8273 3.83594 22.468 3.68359 22.0148 3.68359ZM28.5465 3.88281C28.3824 3.85547 28.2047 3.8418 28.0133 3.8418C27.3023 3.8418 26.8199 4.14453 26.566 4.75V9.25H25.482V2.91016H26.5367L26.5543 3.64258C26.9098 3.07617 27.4137 2.79297 28.066 2.79297C28.277 2.79297 28.4371 2.82031 28.5465 2.875V3.88281ZM29.7754 9.25V3.74805H28.7734V2.91016H29.7754V2.25977C29.7754 1.58008 29.957 1.05469 30.3203 0.683594C30.6836 0.3125 31.1973 0.126953 31.8613 0.126953C32.1113 0.126953 32.3594 0.160156 32.6055 0.226562L32.5469 1.10547C32.3633 1.07031 32.168 1.05273 31.9609 1.05273C31.6094 1.05273 31.3379 1.15625 31.1465 1.36328C30.9551 1.56641 30.8594 1.85938 30.8594 2.24219V2.91016H32.2129V3.74805H30.8594V9.25H29.7754ZM35.5043 9.36719C34.6449 9.36719 33.9457 9.08594 33.4066 8.52344C32.8676 7.95703 32.598 7.20117 32.598 6.25586V6.05664C32.598 5.42773 32.7172 4.86719 32.9555 4.375C33.1977 3.87891 33.5336 3.49219 33.9633 3.21484C34.3969 2.93359 34.8656 2.79297 35.3695 2.79297C36.1937 2.79297 36.8344 3.06445 37.2914 3.60742C37.7484 4.15039 37.977 4.92773 37.977 5.93945V6.39062H33.682C33.6977 7.01562 33.8793 7.52148 34.227 7.9082C34.5785 8.29102 35.0238 8.48242 35.5629 8.48242C35.9457 8.48242 36.2699 8.4043 36.5355 8.24805C36.8012 8.0918 37.0336 7.88477 37.2328 7.62695L37.8949 8.14258C37.3637 8.95898 36.5668 9.36719 35.5043 9.36719ZM35.3695 3.68359C34.932 3.68359 34.5648 3.84375 34.268 4.16406C33.9711 4.48047 33.7875 4.92578 33.7172 5.5H36.893V5.41797C36.8617 4.86719 36.7133 4.44141 36.4477 4.14062C36.182 3.83594 35.8227 3.68359 35.3695 3.68359ZM41.3797 8.48242C41.7664 8.48242 42.1043 8.36523 42.3934 8.13086C42.6824 7.89648 42.8426 7.60352 42.8738 7.25195H43.8992C43.8797 7.61523 43.7547 7.96094 43.5242 8.28906C43.2938 8.61719 42.9852 8.87891 42.5984 9.07422C42.2156 9.26953 41.8094 9.36719 41.3797 9.36719C40.5164 9.36719 39.8289 9.08008 39.3172 8.50586C38.8094 7.92773 38.5555 7.13867 38.5555 6.13867V5.95703C38.5555 5.33984 38.6688 4.79102 38.8953 4.31055C39.1219 3.83008 39.4461 3.45703 39.868 3.19141C40.2938 2.92578 40.7957 2.79297 41.3738 2.79297C42.0848 2.79297 42.6746 3.00586 43.1434 3.43164C43.616 3.85742 43.868 4.41016 43.8992 5.08984H42.8738C42.8426 4.67969 42.6863 4.34375 42.4051 4.08203C42.1277 3.81641 41.784 3.68359 41.3738 3.68359C40.823 3.68359 40.3953 3.88281 40.0906 4.28125C39.7898 4.67578 39.6395 5.24805 39.6395 5.99805V6.20312C39.6395 6.93359 39.7898 7.49609 40.0906 7.89062C40.3914 8.28516 40.8211 8.48242 41.3797 8.48242ZM46.1887 1.375V2.91016H47.3723V3.74805H46.1887V7.67969C46.1887 7.93359 46.2414 8.125 46.3469 8.25391C46.4523 8.37891 46.632 8.44141 46.8859 8.44141C47.0109 8.44141 47.1828 8.41797 47.4016 8.37109V9.25C47.1164 9.32812 46.8391 9.36719 46.5695 9.36719C46.0852 9.36719 45.7199 9.2207 45.4738 8.92773C45.2277 8.63477 45.1047 8.21875 45.1047 7.67969V3.74805H43.9504V2.91016H45.1047V1.375H46.1887ZM52.1211 8.33008H56.1641V9.25H50.9902V0.71875H52.1211V8.33008ZM56.5902 6.02148C56.5902 5.40039 56.7113 4.8418 56.9535 4.3457C57.1996 3.84961 57.5395 3.4668 57.973 3.19727C58.4105 2.92773 58.9086 2.79297 59.4672 2.79297C60.3305 2.79297 61.0277 3.0918 61.559 3.68945C62.0941 4.28711 62.3617 5.08203 62.3617 6.07422V6.15039C62.3617 6.76758 62.2426 7.32227 62.0043 7.81445C61.7699 8.30273 61.432 8.68359 60.9906 8.95703C60.5531 9.23047 60.0492 9.36719 59.4789 9.36719C58.6195 9.36719 57.9223 9.06836 57.3871 8.4707C56.8559 7.87305 56.5902 7.08203 56.5902 6.09766V6.02148ZM57.6801 6.15039C57.6801 6.85352 57.8422 7.41797 58.1664 7.84375C58.4945 8.26953 58.932 8.48242 59.4789 8.48242C60.0297 8.48242 60.4672 8.26758 60.7914 7.83789C61.1156 7.4043 61.2777 6.79883 61.2777 6.02148C61.2777 5.32617 61.1117 4.76367 60.7797 4.33398C60.4516 3.90039 60.0141 3.68359 59.4672 3.68359C58.932 3.68359 58.5004 3.89648 58.1723 4.32227C57.8441 4.74805 57.6801 5.35742 57.6801 6.15039ZM63.0633 6.02734C63.0633 5.03906 63.2918 4.25391 63.7488 3.67188C64.2059 3.08594 64.8113 2.79297 65.5652 2.79297C66.3387 2.79297 66.9422 3.06641 67.3758 3.61328L67.4285 2.91016H68.4188V9.09766C68.4188 9.91797 68.1746 10.5645 67.6863 11.0371C67.202 11.5098 66.5496 11.7461 65.7293 11.7461C65.2723 11.7461 64.825 11.6484 64.3875 11.4531C63.95 11.2578 63.616 10.9902 63.3855 10.6504L63.948 10C64.4129 10.5742 64.9813 10.8613 65.6531 10.8613C66.1805 10.8613 66.5906 10.7129 66.8836 10.416C67.1805 10.1191 67.3289 9.70117 67.3289 9.16211V8.61719C66.8953 9.11719 66.3035 9.36719 65.5535 9.36719C64.8113 9.36719 64.2098 9.06836 63.7488 8.4707C63.2918 7.87305 63.0633 7.05859 63.0633 6.02734ZM64.1531 6.15039C64.1531 6.86523 64.2996 7.42773 64.5926 7.83789C64.8855 8.24414 65.2957 8.44727 65.823 8.44727C66.5066 8.44727 67.0086 8.13672 67.3289 7.51562V4.62109C66.9969 4.01562 66.4988 3.71289 65.8348 3.71289C65.3074 3.71289 64.8953 3.91797 64.5984 4.32812C64.3016 4.73828 64.1531 5.3457 64.1531 6.15039ZM70.8371 9.25H69.7531V2.91016H70.8371V9.25ZM69.6652 1.22852C69.6652 1.05273 69.718 0.904297 69.8234 0.783203C69.9328 0.662109 70.093 0.601562 70.3039 0.601562C70.5148 0.601562 70.675 0.662109 70.7844 0.783203C70.8938 0.904297 70.9484 1.05273 70.9484 1.22852C70.9484 1.4043 70.8938 1.55078 70.7844 1.66797C70.675 1.78516 70.5148 1.84375 70.3039 1.84375C70.093 1.84375 69.9328 1.78516 69.8234 1.66797C69.718 1.55078 69.6652 1.4043 69.6652 1.22852ZM73.2027 2.91016L73.2379 3.70703C73.7223 3.09766 74.3551 2.79297 75.1363 2.79297C76.4762 2.79297 77.152 3.54883 77.1637 5.06055V9.25H76.0797V5.05469C76.0758 4.59766 75.9703 4.25977 75.7633 4.04102C75.5602 3.82227 75.2418 3.71289 74.8082 3.71289C74.4566 3.71289 74.148 3.80664 73.8824 3.99414C73.6168 4.18164 73.4098 4.42773 73.2613 4.73242V9.25H72.1773V2.91016H73.2027ZM86.4535 9.25H80.8637V8.4707L83.8168 5.18945C84.2543 4.69336 84.5551 4.29102 84.7191 3.98242C84.8871 3.66992 84.9711 3.34766 84.9711 3.01562C84.9711 2.57031 84.8363 2.20508 84.5668 1.91992C84.2973 1.63477 83.9379 1.49219 83.4887 1.49219C82.9496 1.49219 82.5297 1.64648 82.2289 1.95508C81.932 2.25977 81.7836 2.68555 81.7836 3.23242H80.6996C80.6996 2.44727 80.9516 1.8125 81.4555 1.32812C81.9633 0.84375 82.641 0.601562 83.4887 0.601562C84.2816 0.601562 84.9086 0.810547 85.3695 1.22852C85.8305 1.64258 86.0609 2.19531 86.0609 2.88672C86.0609 3.72656 85.5258 4.72656 84.4555 5.88672L82.1703 8.36523H86.4535V9.25ZM92.5516 5.61133C92.5516 6.88086 92.3348 7.82422 91.9012 8.44141C91.4676 9.05859 90.7898 9.36719 89.868 9.36719C88.9578 9.36719 88.284 9.06641 87.8465 8.46484C87.409 7.85938 87.1824 6.95703 87.1668 5.75781V4.31055C87.1668 3.05664 87.3836 2.125 87.8172 1.51562C88.2508 0.90625 88.9305 0.601562 89.8562 0.601562C90.7742 0.601562 91.45 0.896484 91.8836 1.48633C92.3172 2.07227 92.5398 2.97852 92.5516 4.20508V5.61133ZM91.4676 4.12891C91.4676 3.21094 91.3387 2.54297 91.0809 2.125C90.823 1.70312 90.4148 1.49219 89.8562 1.49219C89.3016 1.49219 88.8973 1.70117 88.6434 2.11914C88.3895 2.53711 88.2586 3.17969 88.2508 4.04688V5.78125C88.2508 6.70312 88.3836 7.38477 88.6492 7.82617C88.9187 8.26367 89.325 8.48242 89.868 8.48242C90.4031 8.48242 90.7996 8.27539 91.0574 7.86133C91.3191 7.44727 91.4559 6.79492 91.4676 5.9043V4.12891ZM99.1301 9.25H93.5402V8.4707L96.4934 5.18945C96.9309 4.69336 97.2316 4.29102 97.3957 3.98242C97.5637 3.66992 97.6477 3.34766 97.6477 3.01562C97.6477 2.57031 97.5129 2.20508 97.2434 1.91992C96.9738 1.63477 96.6145 1.49219 96.1652 1.49219C95.6262 1.49219 95.2063 1.64648 94.9055 1.95508C94.6086 2.25977 94.4602 2.68555 94.4602 3.23242H93.3762C93.3762 2.44727 93.6281 1.8125 94.132 1.32812C94.6398 0.84375 95.3176 0.601562 96.1652 0.601562C96.9582 0.601562 97.5852 0.810547 98.0461 1.22852C98.507 1.64258 98.7375 2.19531 98.7375 2.88672C98.7375 3.72656 98.2023 4.72656 97.132 5.88672L94.8469 8.36523H99.1301V9.25ZM103.441 9.25H102.351V2.02539L100.166 2.82812V1.84375L103.271 0.677734H103.441V9.25Z" fill="#666666"/>
</svg>
