<svg width="360" height="41" viewBox="0 0 360 41" fill="none" xmlns="http://www.w3.org/2000/svg">
<rect y="0.25" width="360" height="40" rx="6" fill="#333333"/>
<path d="M123.369 20.478C123.37 19.7966 123.312 19.1164 123.196 18.4448H113.7V22.296H119.139C119.027 22.9111 118.792 23.4974 118.446 24.0197C118.1 24.5419 117.652 24.9893 117.128 25.3347V27.8346H120.373C122.274 26.0944 123.369 23.5209 123.369 20.478Z" fill="#4285F4"/>
<path d="M113.7 30.25C116.417 30.25 118.705 29.3639 120.373 27.8362L117.128 25.3364C116.224 25.9447 115.061 26.2919 113.7 26.2919C111.073 26.2919 108.844 24.5336 108.047 22.1643H104.703V24.7406C105.541 26.3967 106.826 27.7889 108.415 28.7618C110.004 29.7347 111.833 30.2499 113.7 30.25Z" fill="#34A853"/>
<path d="M108.047 22.164C107.626 20.9224 107.626 19.5779 108.047 18.3364V15.7601H104.703C103.998 17.1533 103.631 18.6909 103.631 20.2502C103.631 21.8094 103.998 23.347 104.703 24.7402L108.047 22.164Z" fill="#FBBC04"/>
<path d="M113.7 14.2088C115.136 14.1855 116.523 14.7243 117.562 15.7087L120.436 12.8547C118.614 11.1549 116.2 10.2217 113.7 10.2507C111.833 10.2507 110.004 10.766 108.415 11.7389C106.826 12.7117 105.541 14.104 104.703 15.7601L108.047 18.3364C108.844 15.967 111.073 14.2088 113.7 14.2088Z" fill="#EA4335"/>
<path d="M132.344 20.0664C132.344 18.6406 132.727 17.5254 133.493 16.7207C134.258 15.9121 135.246 15.5078 136.457 15.5078C137.25 15.5078 137.965 15.6973 138.602 16.0762C139.239 16.4551 139.723 16.9844 140.055 17.6641C140.391 18.3398 140.559 19.1074 140.559 19.9668C140.559 20.8379 140.383 21.6172 140.032 22.3047C139.68 22.9922 139.182 23.5137 138.537 23.8691C137.893 24.2207 137.198 24.3965 136.452 24.3965C135.643 24.3965 134.92 24.2012 134.284 23.8105C133.647 23.4199 133.164 22.8867 132.836 22.2109C132.508 21.5352 132.344 20.8203 132.344 20.0664ZM133.516 20.084C133.516 21.1191 133.793 21.9355 134.348 22.5332C134.907 23.127 135.606 23.4238 136.446 23.4238C137.301 23.4238 138.004 23.123 138.555 22.5215C139.11 21.9199 139.387 21.0664 139.387 19.9609C139.387 19.2617 139.268 18.6523 139.03 18.1328C138.795 17.6094 138.45 17.2051 137.993 16.9199C137.539 16.6309 137.03 16.4863 136.463 16.4863C135.659 16.4863 134.965 16.7637 134.383 17.3184C133.805 17.8691 133.516 18.791 133.516 20.084ZM142.183 24.25V18.0273H143.132V18.9707C143.375 18.5293 143.597 18.2383 143.8 18.0977C144.007 17.957 144.234 17.8867 144.48 17.8867C144.836 17.8867 145.197 18 145.564 18.2266L145.201 19.2051C144.943 19.0527 144.685 18.9766 144.427 18.9766C144.197 18.9766 143.99 19.0469 143.806 19.1875C143.623 19.3242 143.492 19.5156 143.414 19.7617C143.296 20.1367 143.238 20.5469 143.238 20.9922V24.25H142.183ZM149.709 22.3926L150.752 22.2285C150.811 22.6465 150.973 22.9668 151.238 23.1895C151.508 23.4121 151.883 23.5234 152.363 23.5234C152.848 23.5234 153.207 23.4258 153.441 23.2305C153.676 23.0312 153.793 22.7988 153.793 22.5332C153.793 22.2949 153.689 22.1074 153.482 21.9707C153.338 21.877 152.979 21.7578 152.404 21.6133C151.631 21.418 151.094 21.25 150.793 21.1094C150.496 20.9648 150.27 20.7676 150.113 20.5176C149.961 20.2637 149.885 19.9844 149.885 19.6797C149.885 19.4023 149.947 19.1465 150.072 18.9121C150.201 18.6738 150.375 18.4766 150.594 18.3203C150.758 18.1992 150.98 18.0977 151.262 18.0156C151.547 17.9297 151.852 17.8867 152.176 17.8867C152.664 17.8867 153.092 17.957 153.459 18.0977C153.83 18.2383 154.104 18.4297 154.279 18.6719C154.455 18.9102 154.576 19.2305 154.643 19.6328L153.611 19.7734C153.564 19.4531 153.428 19.2031 153.201 19.0234C152.979 18.8438 152.662 18.7539 152.252 18.7539C151.768 18.7539 151.422 18.834 151.215 18.9941C151.008 19.1543 150.904 19.3418 150.904 19.5566C150.904 19.6934 150.947 19.8164 151.033 19.9258C151.119 20.0391 151.254 20.1328 151.437 20.207C151.543 20.2461 151.854 20.3359 152.369 20.4766C153.115 20.6758 153.635 20.8398 153.928 20.9688C154.225 21.0938 154.457 21.2773 154.625 21.5195C154.793 21.7617 154.877 22.0625 154.877 22.4219C154.877 22.7734 154.773 23.1055 154.566 23.418C154.363 23.7266 154.068 23.9668 153.682 24.1387C153.295 24.3066 152.857 24.3906 152.369 24.3906C151.561 24.3906 150.943 24.2227 150.518 23.8867C150.096 23.5508 149.826 23.0527 149.709 22.3926ZM156.437 16.873V15.6602H157.491V16.873H156.437ZM156.437 24.25V18.0273H157.491V24.25H156.437ZM159.209 24.7656L160.235 24.918C160.278 25.2344 160.397 25.4648 160.592 25.6094C160.854 25.8047 161.211 25.9023 161.664 25.9023C162.153 25.9023 162.53 25.8047 162.795 25.6094C163.061 25.4141 163.241 25.1406 163.334 24.7891C163.389 24.5742 163.414 24.123 163.411 23.4355C162.95 23.9785 162.375 24.25 161.688 24.25C160.832 24.25 160.17 23.9414 159.702 23.3242C159.233 22.707 158.998 21.9668 158.998 21.1035C158.998 20.5098 159.106 19.9629 159.321 19.4629C159.536 18.959 159.846 18.5703 160.252 18.2969C160.662 18.0234 161.143 17.8867 161.694 17.8867C162.428 17.8867 163.034 18.1836 163.51 18.7773V18.0273H164.483V23.4062C164.483 24.375 164.383 25.0605 164.184 25.4629C163.989 25.8691 163.676 26.1895 163.246 26.4238C162.821 26.6582 162.295 26.7754 161.67 26.7754C160.928 26.7754 160.329 26.6074 159.871 26.2715C159.414 25.9395 159.194 25.4375 159.209 24.7656ZM160.082 21.0273C160.082 21.8438 160.245 22.4395 160.569 22.8145C160.893 23.1895 161.299 23.377 161.787 23.377C162.272 23.377 162.678 23.1914 163.006 22.8203C163.334 22.4453 163.498 21.8594 163.498 21.0625C163.498 20.3008 163.329 19.7266 162.989 19.3398C162.653 18.9531 162.246 18.7598 161.77 18.7598C161.301 18.7598 160.903 18.9512 160.575 19.334C160.246 19.7129 160.082 20.2773 160.082 21.0273ZM166.382 24.25V18.0273H167.332V18.9121C167.789 18.2285 168.449 17.8867 169.312 17.8867C169.687 17.8867 170.031 17.9551 170.343 18.0918C170.66 18.2246 170.896 18.4004 171.052 18.6191C171.209 18.8379 171.318 19.0977 171.38 19.3984C171.42 19.5938 171.439 19.9355 171.439 20.4238V24.25H170.384V20.4648C170.384 20.0352 170.343 19.7148 170.261 19.5039C170.179 19.2891 170.033 19.1191 169.822 18.9941C169.615 18.8652 169.371 18.8008 169.089 18.8008C168.64 18.8008 168.252 18.9434 167.923 19.2285C167.599 19.5137 167.437 20.0547 167.437 20.8516V24.25H166.382ZM177.008 16.873V15.6602H178.062V16.873H177.008ZM177.008 24.25V18.0273H178.062V24.25H177.008ZM179.974 24.25V18.0273H180.923V18.9121C181.38 18.2285 182.04 17.8867 182.904 17.8867C183.279 17.8867 183.622 17.9551 183.935 18.0918C184.251 18.2246 184.487 18.4004 184.644 18.6191C184.8 18.8379 184.909 19.0977 184.972 19.3984C185.011 19.5938 185.03 19.9355 185.03 20.4238V24.25H183.976V20.4648C183.976 20.0352 183.935 19.7148 183.853 19.5039C183.771 19.2891 183.624 19.1191 183.413 18.9941C183.206 18.8652 182.962 18.8008 182.681 18.8008C182.232 18.8008 181.843 18.9434 181.515 19.2285C181.191 19.5137 181.029 20.0547 181.029 20.8516V24.25H179.974ZM191.742 24.25L189.837 18.0273H190.927L191.918 21.6191L192.287 22.9551C192.302 22.8887 192.41 22.4609 192.609 21.6719L193.599 18.0273H194.683L195.615 21.6367L195.925 22.8262L196.283 21.625L197.349 18.0273H198.375L196.429 24.25H195.334L194.343 20.5234L194.103 19.4629L192.843 24.25H191.742ZM199.571 16.873V15.6602H200.626V16.873H199.571ZM199.571 24.25V18.0273H200.626V24.25H199.571ZM204.84 23.3066L204.992 24.2383C204.695 24.3008 204.43 24.332 204.195 24.332C203.812 24.332 203.516 24.2715 203.305 24.1504C203.094 24.0293 202.945 23.8711 202.859 23.6758C202.773 23.4766 202.73 23.0605 202.73 22.4277V18.8477H201.957V18.0273H202.73V16.4863L203.779 15.8535V18.0273H204.84V18.8477H203.779V22.4863C203.779 22.7871 203.797 22.9805 203.832 23.0664C203.871 23.1523 203.932 23.2207 204.014 23.2715C204.1 23.3223 204.221 23.3477 204.377 23.3477C204.494 23.3477 204.648 23.334 204.84 23.3066ZM206.177 24.25V15.6602H207.232V18.7422C207.724 18.1719 208.345 17.8867 209.095 17.8867C209.556 17.8867 209.956 17.9785 210.296 18.1621C210.636 18.3418 210.878 18.5918 211.023 18.9121C211.171 19.2324 211.245 19.6973 211.245 20.3066V24.25H210.191V20.3066C210.191 19.7793 210.075 19.3965 209.845 19.1582C209.618 18.916 209.296 18.7949 208.878 18.7949C208.566 18.7949 208.271 18.877 207.993 19.041C207.72 19.2012 207.525 19.4199 207.407 19.6973C207.29 19.9746 207.232 20.3574 207.232 20.8457V24.25H206.177ZM220.951 20.8809V19.873L224.589 19.8672V23.0547C224.031 23.5 223.455 23.8359 222.861 24.0625C222.267 24.2852 221.658 24.3965 221.033 24.3965C220.189 24.3965 219.421 24.2168 218.73 23.8574C218.043 23.4941 217.523 22.9707 217.171 22.2871C216.82 21.6035 216.644 20.8398 216.644 19.9961C216.644 19.1602 216.818 18.3809 217.166 17.6582C217.517 16.9316 218.021 16.3926 218.677 16.041C219.334 15.6895 220.089 15.5137 220.945 15.5137C221.566 15.5137 222.127 15.6152 222.627 15.8184C223.13 16.0176 223.525 16.2969 223.81 16.6562C224.095 17.0156 224.312 17.4844 224.461 18.0625L223.435 18.3438C223.306 17.9062 223.146 17.5625 222.955 17.3125C222.763 17.0625 222.49 16.8633 222.134 16.7148C221.779 16.5625 221.384 16.4863 220.951 16.4863C220.431 16.4863 219.982 16.5664 219.603 16.7266C219.224 16.8828 218.918 17.0898 218.683 17.3477C218.453 17.6055 218.273 17.8887 218.144 18.1973C217.925 18.7285 217.816 19.3047 217.816 19.9258C217.816 20.6914 217.947 21.332 218.209 21.8477C218.474 22.3633 218.859 22.7461 219.363 22.9961C219.867 23.2461 220.402 23.3711 220.968 23.3711C221.461 23.3711 221.941 23.2773 222.41 23.0898C222.879 22.8984 223.234 22.6953 223.476 22.4805V20.8809H220.951ZM226.044 21.1387C226.044 19.9863 226.364 19.1328 227.005 18.5781C227.54 18.1172 228.192 17.8867 228.962 17.8867C229.817 17.8867 230.516 18.168 231.059 18.7305C231.602 19.2891 231.874 20.0625 231.874 21.0508C231.874 21.8516 231.753 22.4824 231.511 22.9434C231.272 23.4004 230.923 23.7559 230.462 24.0098C230.005 24.2637 229.505 24.3906 228.962 24.3906C228.091 24.3906 227.386 24.1113 226.846 23.5527C226.311 22.9941 226.044 22.1895 226.044 21.1387ZM227.128 21.1387C227.128 21.9355 227.302 22.5332 227.649 22.9316C227.997 23.3262 228.434 23.5234 228.962 23.5234C229.485 23.5234 229.921 23.3242 230.268 22.9258C230.616 22.5273 230.79 21.9199 230.79 21.1035C230.79 20.334 230.614 19.752 230.262 19.3574C229.915 18.959 229.481 18.7598 228.962 18.7598C228.434 18.7598 227.997 18.957 227.649 19.3516C227.302 19.7461 227.128 20.3418 227.128 21.1387ZM233.023 21.1387C233.023 19.9863 233.344 19.1328 233.984 18.5781C234.52 18.1172 235.172 17.8867 235.941 17.8867C236.797 17.8867 237.496 18.168 238.039 18.7305C238.582 19.2891 238.854 20.0625 238.854 21.0508C238.854 21.8516 238.732 22.4824 238.49 22.9434C238.252 23.4004 237.902 23.7559 237.441 24.0098C236.984 24.2637 236.484 24.3906 235.941 24.3906C235.07 24.3906 234.365 24.1113 233.826 23.5527C233.291 22.9941 233.023 22.1895 233.023 21.1387ZM234.107 21.1387C234.107 21.9355 234.281 22.5332 234.629 22.9316C234.977 23.3262 235.414 23.5234 235.941 23.5234C236.465 23.5234 236.9 23.3242 237.248 22.9258C237.596 22.5273 237.77 21.9199 237.77 21.1035C237.77 20.334 237.594 19.752 237.242 19.3574C236.895 18.959 236.461 18.7598 235.941 18.7598C235.414 18.7598 234.977 18.957 234.629 19.3516C234.281 19.7461 234.107 20.3418 234.107 21.1387ZM240.202 24.7656L241.228 24.918C241.271 25.2344 241.39 25.4648 241.585 25.6094C241.847 25.8047 242.204 25.9023 242.657 25.9023C243.146 25.9023 243.523 25.8047 243.788 25.6094C244.054 25.4141 244.234 25.1406 244.327 24.7891C244.382 24.5742 244.407 24.123 244.404 23.4355C243.943 23.9785 243.368 24.25 242.681 24.25C241.825 24.25 241.163 23.9414 240.695 23.3242C240.226 22.707 239.991 21.9668 239.991 21.1035C239.991 20.5098 240.099 19.9629 240.314 19.4629C240.529 18.959 240.839 18.5703 241.245 18.2969C241.655 18.0234 242.136 17.8867 242.687 17.8867C243.421 17.8867 244.027 18.1836 244.503 18.7773V18.0273H245.476V23.4062C245.476 24.375 245.376 25.0605 245.177 25.4629C244.982 25.8691 244.669 26.1895 244.239 26.4238C243.814 26.6582 243.288 26.7754 242.663 26.7754C241.921 26.7754 241.321 26.6074 240.864 26.2715C240.407 25.9395 240.187 25.4375 240.202 24.7656ZM241.075 21.0273C241.075 21.8438 241.237 22.4395 241.562 22.8145C241.886 23.1895 242.292 23.377 242.78 23.377C243.265 23.377 243.671 23.1914 243.999 22.8203C244.327 22.4453 244.491 21.8594 244.491 21.0625C244.491 20.3008 244.321 19.7266 243.982 19.3398C243.646 18.9531 243.239 18.7598 242.763 18.7598C242.294 18.7598 241.896 18.9512 241.568 19.334C241.239 19.7129 241.075 20.2773 241.075 21.0273ZM247.352 24.25V15.6602H248.407V24.25H247.352ZM254.607 22.2461L255.697 22.3809C255.525 23.0176 255.207 23.5117 254.742 23.8633C254.277 24.2148 253.683 24.3906 252.961 24.3906C252.05 24.3906 251.328 24.1113 250.793 23.5527C250.261 22.9902 249.996 22.2031 249.996 21.1914C249.996 20.1445 250.265 19.332 250.804 18.7539C251.343 18.1758 252.043 17.8867 252.902 17.8867C253.734 17.8867 254.414 18.1699 254.941 18.7363C255.468 19.3027 255.732 20.0996 255.732 21.127C255.732 21.1895 255.73 21.2832 255.726 21.4082H251.086C251.125 22.0918 251.318 22.6152 251.666 22.9785C252.013 23.3418 252.447 23.5234 252.966 23.5234C253.353 23.5234 253.683 23.4219 253.957 23.2188C254.23 23.0156 254.447 22.6914 254.607 22.2461ZM251.144 20.541H254.619C254.572 20.0176 254.439 19.625 254.22 19.3633C253.884 18.957 253.449 18.7539 252.914 18.7539C252.429 18.7539 252.021 18.916 251.689 19.2402C251.361 19.5645 251.179 19.998 251.144 20.541Z" fill="white"/>
</svg>
