<svg width="360" height="41" viewBox="0 0 360 41" fill="none" xmlns="http://www.w3.org/2000/svg">
<rect y="0.75" width="360" height="40" rx="6" fill="#8053FF"/>
<path d="M162.423 22.9521C162.423 22.5371 162.276 22.2197 161.983 22C161.69 21.7754 161.163 21.541 160.401 21.2969C159.64 21.0479 159.037 20.8037 158.592 20.5645C157.381 19.9102 156.776 19.0288 156.776 17.9204C156.776 17.3442 156.937 16.8315 157.259 16.3823C157.586 15.9282 158.053 15.5742 158.658 15.3203C159.268 15.0664 159.952 14.9395 160.709 14.9395C161.471 14.9395 162.149 15.0786 162.745 15.3569C163.341 15.6304 163.802 16.0186 164.129 16.5215C164.461 17.0244 164.627 17.5957 164.627 18.2354H162.43C162.43 17.7471 162.276 17.3687 161.969 17.1001C161.661 16.8267 161.229 16.6899 160.672 16.6899C160.135 16.6899 159.718 16.8047 159.42 17.0342C159.122 17.2588 158.973 17.5566 158.973 17.9277C158.973 18.2744 159.146 18.5649 159.493 18.7993C159.845 19.0337 160.36 19.2534 161.038 19.4585C162.288 19.8345 163.199 20.3008 163.77 20.8574C164.342 21.4141 164.627 22.1074 164.627 22.9375C164.627 23.8604 164.278 24.5854 163.58 25.1128C162.882 25.6353 161.942 25.8965 160.76 25.8965C159.94 25.8965 159.193 25.7476 158.519 25.4497C157.845 25.147 157.33 24.7344 156.974 24.2119C156.622 23.6895 156.446 23.084 156.446 22.3955H158.651C158.651 23.5723 159.354 24.1606 160.76 24.1606C161.283 24.1606 161.69 24.0557 161.983 23.8457C162.276 23.6309 162.423 23.333 162.423 22.9521ZM168.516 25.75H166.392V17.8252H168.516V25.75ZM166.268 15.7744C166.268 15.457 166.373 15.1958 166.583 14.9907C166.797 14.7856 167.088 14.6831 167.454 14.6831C167.816 14.6831 168.104 14.7856 168.318 14.9907C168.533 15.1958 168.641 15.457 168.641 15.7744C168.641 16.0967 168.531 16.3604 168.311 16.5654C168.096 16.7705 167.811 16.873 167.454 16.873C167.098 16.873 166.81 16.7705 166.59 16.5654C166.375 16.3604 166.268 16.0967 166.268 15.7744ZM170.259 21.729C170.259 20.5132 170.547 19.5342 171.123 18.792C171.704 18.0498 172.486 17.6787 173.467 17.6787C174.336 17.6787 175.013 17.9766 175.496 18.5723L175.584 17.8252H177.503V25.4863C177.503 26.1797 177.344 26.7827 177.027 27.2954C176.714 27.8081 176.272 28.1987 175.701 28.4673C175.13 28.7358 174.461 28.8701 173.694 28.8701C173.113 28.8701 172.547 28.7529 171.995 28.5186C171.443 28.2891 171.026 27.9912 170.742 27.625L171.68 26.3359C172.207 26.9268 172.847 27.2222 173.599 27.2222C174.16 27.2222 174.597 27.0708 174.91 26.7681C175.222 26.4702 175.379 26.0454 175.379 25.4937V25.0688C174.89 25.6206 174.248 25.8965 173.452 25.8965C172.5 25.8965 171.729 25.5254 171.138 24.7832C170.552 24.0361 170.259 23.0474 170.259 21.8169V21.729ZM172.376 21.8828C172.376 22.6006 172.52 23.1646 172.808 23.5747C173.096 23.98 173.492 24.1826 173.994 24.1826C174.639 24.1826 175.1 23.9409 175.379 23.4575V20.125C175.096 19.6416 174.639 19.3999 174.009 19.3999C173.501 19.3999 173.101 19.6074 172.808 20.0225C172.52 20.4375 172.376 21.0576 172.376 21.8828ZM181.384 17.8252L181.45 18.7407C182.017 18.0327 182.776 17.6787 183.728 17.6787C184.568 17.6787 185.193 17.9253 185.603 18.4185C186.013 18.9116 186.223 19.6489 186.233 20.6304V25.75H184.116V20.6816C184.116 20.2324 184.019 19.9077 183.823 19.7075C183.628 19.5024 183.303 19.3999 182.849 19.3999C182.253 19.3999 181.807 19.6538 181.509 20.1616V25.75H179.392V17.8252H181.384ZM194.413 25.75H192.289V17.8252H194.413V25.75ZM192.165 15.7744C192.165 15.457 192.27 15.1958 192.48 14.9907C192.695 14.7856 192.985 14.6831 193.351 14.6831C193.713 14.6831 194.001 14.7856 194.216 14.9907C194.431 15.1958 194.538 15.457 194.538 15.7744C194.538 16.0967 194.428 16.3604 194.208 16.5654C193.994 16.7705 193.708 16.873 193.351 16.873C192.995 16.873 192.707 16.7705 192.487 16.5654C192.272 16.3604 192.165 16.0967 192.165 15.7744ZM198.412 17.8252L198.478 18.7407C199.045 18.0327 199.804 17.6787 200.756 17.6787C201.596 17.6787 202.221 17.9253 202.631 18.4185C203.041 18.9116 203.251 19.6489 203.261 20.6304V25.75H201.144V20.6816C201.144 20.2324 201.046 19.9077 200.851 19.7075C200.656 19.5024 200.331 19.3999 199.877 19.3999C199.281 19.3999 198.835 19.6538 198.537 20.1616V25.75H196.42V17.8252H198.412Z" fill="white"/>
</svg>
